<?xml version="1.0" encoding="UTF-8" standalone="no"?>
<!-- Created with Inkscape (http://www.inkscape.org/) -->

<svg
   width="295.4823mm"
   height="295.4823mm"
   viewBox="0 0 295.4823 295.4823"
   version="1.1"
   id="svg1"
   xml:space="preserve"
   inkscape:version="1.2.2 (732a01da63, 2022-12-09)"
   sodipodi:docname="icon-vector.svg"
   xmlns:inkscape="http://www.inkscape.org/namespaces/inkscape"
   xmlns:sodipodi="http://sodipodi.sourceforge.net/DTD/sodipodi-0.dtd"
   xmlns:xlink="http://www.w3.org/1999/xlink"
   xmlns="http://www.w3.org/2000/svg"
   xmlns:svg="http://www.w3.org/2000/svg"><sodipodi:namedview
     id="namedview1"
     pagecolor="#505050"
     bordercolor="#eeeeee"
     borderopacity="1"
     inkscape:showpageshadow="0"
     inkscape:pageopacity="0"
     inkscape:pagecheckerboard="0"
     inkscape:deskcolor="#d1d1d1"
     inkscape:document-units="mm"
     inkscape:zoom="1.5980613"
     inkscape:cx="192.73353"
     inkscape:cy="1077.2428"
     inkscape:window-width="2560"
     inkscape:window-height="1351"
     inkscape:window-x="-9"
     inkscape:window-y="1431"
     inkscape:window-maximized="1"
     inkscape:current-layer="layer1"
     showgrid="false" /><defs
     id="defs1"><linearGradient
       inkscape:collect="always"
       id="linearGradient2379"><stop
         style="stop-color:#ff00ff;stop-opacity:1;"
         offset="0"
         id="stop2375" /><stop
         style="stop-color:#ff00ff;stop-opacity:0;"
         offset="1"
         id="stop2377" /></linearGradient><linearGradient
       inkscape:collect="always"
       id="linearGradient2356"><stop
         style="stop-color:#ff00ff;stop-opacity:1;"
         offset="0"
         id="stop2352" /><stop
         style="stop-color:#ff00ff;stop-opacity:0;"
         offset="1"
         id="stop2354" /></linearGradient><linearGradient
       inkscape:collect="always"
       id="linearGradient2192"><stop
         style="stop-color:#5757eb;stop-opacity:1;"
         offset="0"
         id="stop2188" /><stop
         style="stop-color:#ab2bf5;stop-opacity:1;"
         offset="0.40000001"
         id="stop2196" /><stop
         style="stop-color:#ff00ff;stop-opacity:1"
         offset="1"
         id="stop2190" /></linearGradient><linearGradient
       inkscape:collect="always"
       id="linearGradient790"><stop
         style="stop-color:#5757eb;stop-opacity:1;"
         offset="0"
         id="stop786" /><stop
         style="stop-color:#ff00ff;stop-opacity:1;"
         offset="1"
         id="stop788" /></linearGradient><inkscape:path-effect
       effect="fill_between_many"
       method="originald"
       linkedpaths="#path363,0,1"
       id="path-effect375"
       is_visible="true"
       lpeversion="0"
       join="true"
       close="true"
       autoreverse="true" /><linearGradient
       inkscape:collect="always"
       xlink:href="#linearGradient790"
       id="linearGradient792"
       x1="72.020859"
       y1="209.34166"
       x2="39.97937"
       y2="209.34166"
       gradientUnits="userSpaceOnUse" /><linearGradient
       inkscape:collect="always"
       xlink:href="#linearGradient2192"
       id="linearGradient2194"
       x1="64.036842"
       y1="236.04222"
       x2="9.922369"
       y2="236.04221"
       gradientUnits="userSpaceOnUse" /><linearGradient
       inkscape:collect="always"
       xlink:href="#linearGradient2356"
       id="linearGradient2358"
       x1="165.87727"
       y1="260.10291"
       x2="144.20729"
       y2="260.84793"
       gradientUnits="userSpaceOnUse" /><linearGradient
       inkscape:collect="always"
       xlink:href="#linearGradient2379"
       id="linearGradient2381"
       x1="180.13493"
       y1="30.962452"
       x2="180.13493"
       y2="60.246235"
       gradientUnits="userSpaceOnUse" /></defs><g
     inkscape:label="Layer 1"
     inkscape:groupmode="layer"
     id="layer1"
     transform="translate(44.815498,-1.5177002)"><path
       style="fill:#ffff66;fill-opacity:1;stroke:none"
       d="m 69.692957,252.51157 -0.926042,-0.0874 -2.910416,-0.28922 -2.910417,-0.28921 -3.704167,-0.63277 -3.704167,-0.63276 -3.704167,-0.91509 -3.704166,-0.91509 -3.850834,-1.33266 -3.850834,-1.33267 -2.76375,-1.22033 -2.76375,-1.22032 -3.121537,-1.76407 -3.121538,-1.76406 -2.810587,-2.08133 -2.810587,-2.08132 -2.288669,-2.2843 -2.28867,-2.2843 -1.200406,-1.5875 -1.200406,-1.5875 -1.482002,-2.57024 -1.482001,-2.57023 -0.737186,-2.58914 -0.737186,-2.58914 -5.72e-4,-4.10104 -5.72e-4,-4.10104 0.604323,-2.0889 0.604323,-2.08889 0.915424,-1.98132 0.915424,-1.98131 1.473281,-2.21421 1.473282,-2.2142 2.155622,-2.27727 2.155622,-2.27727 1.891834,-1.54587 1.891833,-1.54587 2.380128,-1.59204 2.380128,-1.59205 3.014098,-1.58016 3.014098,-1.58017 2.248958,-0.96279 2.248958,-0.96279 3.318546,-1.13946 3.318545,-1.13945 2.502288,-0.68028 2.502289,-0.68028 3.96875,-0.78908 3.96875,-0.78907 3.307292,-0.41286 3.307291,-0.41285 4.365626,-0.26206 4.365625,-0.26207 46.235944,-0.002 46.23593,-0.002 v 8.19268 8.19267 l -48.22031,0.0896 -48.220314,0.0896 -2.778126,0.44716 -2.778125,0.44717 -2.513541,0.56596 -2.513542,0.56595 -2.999644,1.03235 -2.999644,1.03234 -2.424315,1.21718 -2.424314,1.21719 -1.5875,1.0645 -1.5875,1.06449 -1.701761,1.47816 -1.701761,1.47817 -1.171053,1.58903 -1.171053,1.58903 -0.767645,1.51864 -0.767644,1.51863 -0.390527,1.65637 -0.390527,1.65636 -0.0039,1.37604 -0.0039,1.37604 0.294415,1.40208 0.294416,1.40209 0.851483,1.85208 0.851484,1.85209 1.606694,1.98437 1.606695,1.98438 2.030444,1.5875 2.030443,1.5875 2.339598,1.34481 2.339598,1.34482 2.733094,1.06476 2.733095,1.06475 2.513542,0.69776 2.513541,0.69775 3.042709,0.57831 3.042708,0.5783 42.597917,0.15817 42.59792,0.15818 2.02235,0.56993 2.02235,0.56994 1.6235,0.81954 1.62349,0.81954 1.06967,0.96638 1.06967,0.96638 0.55891,1.07638 0.55891,1.07638 -0.012,1.36903 -0.012,1.36903 -0.69983,1.19416 -0.69983,1.19416 -1.14739,0.94021 -1.1474,0.9402 -1.69539,0.76398 -1.69539,0.76397 -1.90431,0.42899 -1.90431,0.42898 -42.14882,-0.0423 -42.14881,-0.0423 z"
       id="path531"
       sodipodi:nodetypes="ccccccccccccccccccccccccccccccccccccccccccccccccccccccccccccccccccccccccccccccccccccccccccccccccccccccccccccccccccccc" /><path
       style="fill:#9898fe"
       d="m 187.97848,128.32786 -0.0168,-78.186003 0.39027,-3.336327 0.39027,-3.336328 0.66809,-3.164206 0.66808,-3.164206 0.62844,-1.847702 0.62845,-1.847701 0.40278,-0.778894 0.40278,-0.778893 0.55129,-0.498912 0.55129,-0.498912 0.37245,0.3091 0.37244,0.3091 0.29398,1.167495 0.29398,1.167495 v 78.355054 78.35505 l -3.07067,7.45122 -3.07066,7.45123 -0.21986,0.52917 -0.21986,0.52917 z"
       id="path532" /><path
       style="fill:url(#linearGradient792);fill-opacity:1"
       d="m 40.727046,219.84779 -0.762421,-1.69227 -0.345243,-1.45521 -0.345243,-1.4552 -2.22e-4,-1.45521 -2.23e-4,-1.45521 0.390527,-1.65636 0.390527,-1.65637 0.767644,-1.51863 0.767645,-1.51864 1.171053,-1.58903 1.171053,-1.58903 1.701761,-1.47817 1.701761,-1.47816 1.5875,-1.06449 1.5875,-1.0645 2.424314,-1.21719 2.424315,-1.21718 2.999644,-1.03234 2.999644,-1.03235 2.513542,-0.56595 2.513541,-0.56596 2.778125,-0.44717 2.778126,-0.44716 48.214694,-0.0896 48.2147,-0.0896 0.0783,-71.36194 0.0783,-71.361954 0.5975,-3.653858 0.5975,-3.653858 0.77784,-3.016767 0.77784,-3.016767 0.77348,-1.705878 0.77348,-1.705878 0.53926,-0.288601 0.53926,-0.288602 h 9.58851 9.58852 l -0.54223,0.595313 -0.54222,0.595312 -0.32466,0.628395 -0.32466,0.628394 -0.63443,1.865285 -0.63442,1.865284 -0.66808,3.164206 -0.66809,3.164206 -0.39027,3.336328 -0.39027,3.336327 v 78.245883 78.24588 l -58.27448,0.0802 -58.274481,0.0802 -2.778125,0.46971 -2.778125,0.46972 -2.38125,0.5495 -2.38125,0.5495 -2.645834,0.91394 -2.645833,0.91394 -2.180129,1.01717 -2.180129,1.01717 -2.298473,1.49822 -2.298473,1.49822 -2.018603,2.02593 -2.018604,2.02593 -0.659227,0.89852 -0.659226,0.89851 z"
       id="path533" /><path
       style="display:inline;fill:url(#linearGradient2194);fill-opacity:1"
       d="m 70.222124,268.11425 -1.190625,-0.0921 -3.699177,-0.40993 -3.699177,-0.40993 -2.253948,-0.39022 -2.253949,-0.39021 -3.042708,-0.6786 -3.042709,-0.67861 -3.175,-0.92032 -3.175,-0.92033 -3.704167,-1.46527 -3.704166,-1.46526 -2.381251,-1.18842 -2.38125,-1.18842 -2.209273,-1.32733 -2.209274,-1.32733 -2.653485,-1.97479 -2.653485,-1.97479 -2.280992,-2.30794 -2.280991,-2.30794 -1.190625,-1.63934 -1.008418,-1.38846 -0.182207,-0.25087 -0.961712,-1.68632 -0.961712,-1.68632 -0.68588,-1.71443 -0.685879,-1.71443 -0.45387,-1.55751 -0.45387,-1.5575 -0.05411,-8.33438 -0.05411,-8.33437 0.120417,0.66145 0.120417,0.66146 0.656956,2.45685 0.656956,2.45685 1.482001,2.57023 1.482002,2.57024 1.200406,1.5875 1.200406,1.5875 2.28867,2.2843 2.288669,2.2843 2.810587,2.08132 2.810587,2.08133 3.121538,1.76406 3.121537,1.76407 2.76375,1.22032 2.76375,1.22033 3.825934,1.32159 3.825934,1.3216 3.067608,0.77069 3.067609,0.77069 2.778125,0.55443 2.778125,0.55443 3.96875,0.57292 3.96875,0.57292 43.523962,0.0902 43.52396,0.0902 1.98438,-0.43751 1.98437,-0.43751 1.69539,-0.76583 1.69539,-0.76584 1.12734,-0.92377 1.12734,-0.92377 0.58998,-0.95461 0.58998,-0.9546 0.20713,-0.83127 0.20712,-0.83127 -0.048,8.33438 -0.048,8.33437 -0.48694,0.89302 -0.48694,0.89301 -1.14018,1.10813 -1.14018,1.10812 -1.68017,0.82202 -1.68017,0.82202 -1.5875,0.47758 -1.5875,0.47758 -42.33334,0.0288 -42.333335,0.0288 z"
       id="path534"
       sodipodi:nodetypes="cccccccccccccccccccccccccccccccccccccccccccccccccccccccccccccccccccccccccccccccc" /><path
       id="rect2250"
       style="fill:url(#linearGradient2358);fill-opacity:1;stroke:none;stroke-width:1;stroke-dasharray:none;paint-order:stroke fill markers"
       d="m 165.96506,244.87859 -0.20722,0.83096 -0.20722,0.83147 -0.59015,0.95447 -0.58962,0.95446 -1.12758,0.92398 -1.12707,0.92397 -1.6955,0.76585 -1.6955,0.76584 -1.98438,0.43718 -1.98437,0.4377 -26.44335,-0.0548 v 15.51792 l 27.76626,-0.0191 1.5875,-0.47749 1.5875,-0.47749 1.68,-0.82217 1.68052,-0.82217 1.13998,-1.10795 1.13998,-1.10794 0.48731,-0.89297 0.4868,-0.89297 0.024,-4.16719 0.024,-4.16718 z"
       sodipodi:nodetypes="ccccccccccccccccccccccccc" /><path
       id="rect2362"
       style="fill:url(#linearGradient2381);fill-opacity:1;stroke:none;stroke-width:1;stroke-dasharray:none;paint-order:stroke fill markers"
       d="m 173.90411,30.962451 -0.5395,0.288871 -0.53898,0.288355 -0.7736,1.706356 -0.7736,1.705839 -0.77773,3.016353 -0.77773,3.01687 -0.59738,3.654041 -0.59789,3.653524 -0.0129,11.972912 h 19.44687 v -10.12393 l 0.39016,-3.33623 0.39067,-3.336231 0.66766,-3.164148 0.66818,-3.164148 0.63459,-1.865519 0.63458,-1.865002 0.32453,-0.628386 0.32453,-0.628902 0.54209,-0.595312 0.5426,-0.595313 h -9.58856 z" /></g></svg>
